<svg width="96" height="96" viewBox="0 0 96 96" fill="none" xmlns="http://www.w3.org/2000/svg">
<g filter="url(#filter0_d_482_642)">
<path d="M37.5826 8.65543C37.2212 8.2488 36.5701 8 35.8676 8H16.5324C14.9778 8 14.0176 9.14476 14.8174 10.0446L36.4174 34.3446C36.7788 34.7512 37.4298 35 38.1324 35H57.4676C59.0222 35 59.9824 33.8552 59.1826 32.9554L37.5826 8.65543Z" fill="#C52229"/>
<path fill-rule="evenodd" clip-rule="evenodd" d="M35.8665 6.65039H16.5312C13.4221 6.65039 11.5016 8.93991 13.1013 10.7395L34.7013 35.0395C35.4242 35.8528 36.7262 36.3504 38.1312 36.3504H57.4665C60.5757 36.3504 62.4961 34.0609 60.8965 32.2613L39.2965 7.96125C38.5736 7.148 37.2715 6.65039 35.8665 6.65039ZM35.8665 8.00039C36.569 8.00039 37.22 8.24919 37.5815 8.65582L59.1815 32.9558C59.9813 33.8556 59.0211 35.0004 57.4665 35.0004H38.1312C37.4287 35.0004 36.7777 34.7516 36.4163 34.345L14.8163 10.045C14.0164 9.14515 14.9767 8.00039 16.5312 8.00039H35.8665Z" fill="#9B0F15"/>
<path d="M58.4174 8.65543C58.7788 8.2488 59.4299 8 60.1324 8H79.4676C81.0222 8 81.9824 9.14476 81.1826 10.0446L59.5826 34.3446C59.2212 34.7512 58.5702 35 57.8676 35H38.5324C36.9778 35 36.0176 33.8552 36.8174 32.9554L58.4174 8.65543Z" fill="#F1333B"/>
<path fill-rule="evenodd" clip-rule="evenodd" d="M60.1316 6.65039H79.4668C82.576 6.65039 84.4964 8.93991 82.8968 10.7395L61.2968 35.0395C60.5739 35.8528 59.2719 36.3504 57.8668 36.3504H38.5316C35.4224 36.3504 33.5019 34.0609 35.1016 32.2613L56.7016 7.96125C57.4245 7.148 58.7265 6.65039 60.1316 6.65039ZM60.1316 8.00039C59.429 8.00039 58.778 8.24919 58.4166 8.65582L36.8166 32.9558C36.0168 33.8556 36.977 35.0004 38.5316 35.0004H57.8668C58.5693 35.0004 59.2203 34.7516 59.5818 34.345L81.1818 10.045C81.9816 9.14515 81.0214 8.00039 79.4668 8.00039H60.1316Z" fill="#9B0F15"/>
<path fill-rule="evenodd" clip-rule="evenodd" d="M60.5023 8.76618C60.9799 8.95338 61.1423 9.36647 60.865 9.68886L51.865 20.1514C51.5876 20.4737 50.9756 20.5833 50.498 20.3961C50.0204 20.209 49.8581 19.7959 50.1354 19.4735L59.1354 9.01097C59.4127 8.68859 60.0247 8.57899 60.5023 8.76618Z" fill="#FE666D"/>
<path fill-rule="evenodd" clip-rule="evenodd" d="M16.4977 8.76618C16.0201 8.95338 15.8577 9.36647 16.135 9.68886L25.135 20.1514C25.4124 20.4737 26.0244 20.5833 26.502 20.3961C26.9796 20.209 27.1419 19.7959 26.8646 19.4735L17.8646 9.01097C17.5873 8.68859 16.9753 8.57899 16.4977 8.76618Z" fill="#DF3840"/>
<path d="M35.5 10.2145C35.5 10.6921 34.9404 11.0793 34.25 11.0793C33.5596 11.0793 33 10.6921 33 10.2145C33 9.73681 33.5596 9.34961 34.25 9.34961C34.9404 9.34961 35.5 9.73681 35.5 10.2145Z" fill="#AA161D"/>
<path d="M31.1098 10.4254C31.1098 11.0195 30.4136 11.5012 29.5549 11.5012C28.6961 11.5012 28 11.0195 28 10.4254C28 9.83125 28.6961 9.34961 29.5549 9.34961C30.4136 9.34961 31.1098 9.83125 31.1098 10.4254Z" fill="#AA161D"/>
<path d="M35.0004 13.5055C35.0004 14.0996 34.3042 14.5813 33.4455 14.5813C32.5868 14.5813 31.8906 14.0996 31.8906 13.5055C31.8906 12.9113 32.5868 12.4297 33.4455 12.4297C34.3042 12.4297 35.0004 12.9113 35.0004 13.5055Z" fill="#AA161D"/>
<path d="M38.5549 12.0389C38.5549 12.3359 38.2068 12.5768 37.7774 12.5768C37.3481 12.5768 37 12.3359 37 12.0389C37 11.7418 37.3481 11.501 37.7774 11.501C38.2068 11.501 38.5549 11.7418 38.5549 12.0389Z" fill="#AA161D"/>
<path d="M30.3322 12.9676C30.3322 13.2646 29.9842 13.5055 29.5548 13.5055C29.1254 13.5055 28.7773 13.2646 28.7773 12.9676C28.7773 12.6705 29.1254 12.4297 29.5548 12.4297C29.9842 12.4297 30.3322 12.6705 30.3322 12.9676Z" fill="#AA161D"/>
<path d="M26.0002 9.67656C26.0002 9.97363 25.6521 10.2145 25.2228 10.2145C24.7934 10.2145 24.4453 9.97363 24.4453 9.67656C24.4453 9.37949 24.7934 9.13867 25.2228 9.13867C25.6521 9.13867 26.0002 9.37949 26.0002 9.67656Z" fill="#AA161D"/>
<path d="M37.7775 15.7938C37.7775 16.0908 37.4295 16.3316 37.0001 16.3316C36.5707 16.3316 36.2227 16.0908 36.2227 15.7938C36.2227 15.4967 36.5707 15.2559 37.0001 15.2559C37.4295 15.2559 37.7775 15.4967 37.7775 15.7938Z" fill="#AA161D"/>
<path d="M33.7775 16.3318C33.7775 16.6289 33.4295 16.8697 33.0001 16.8697C32.5707 16.8697 32.2227 16.6289 32.2227 16.3318C32.2227 16.0348 32.5707 15.7939 33.0001 15.7939C33.4295 15.7939 33.7775 16.0348 33.7775 16.3318Z" fill="#AA161D"/>
<path d="M41.5305 14.3803C41.5305 14.8637 40.964 15.2557 40.2652 15.2557C39.5665 15.2557 39 14.8637 39 14.3803C39 13.8968 39.5665 13.5049 40.2652 13.5049C40.964 13.5049 41.5305 13.8968 41.5305 14.3803Z" fill="#AA161D"/>
<path d="M43.1799 16.8699C43.1799 17.167 42.8318 17.4078 42.4024 17.4078C41.9731 17.4078 41.625 17.167 41.625 16.8699C41.625 16.5729 41.9731 16.332 42.4024 16.332C42.8318 16.332 43.1799 16.5729 43.1799 16.8699Z" fill="#AA161D"/>
<path d="M75 61C75 75.9117 62.9117 88 48 88C33.0883 88 21 75.9117 21 61C21 46.0883 33.0883 34 48 34C62.9117 34 75 46.0883 75 61Z" fill="#FFBB0D"/>
<path fill-rule="evenodd" clip-rule="evenodd" d="M77 61C77 77.0163 64.0163 90 48 90C31.9837 90 19 77.0163 19 61C19 44.9837 31.9837 32 48 32C64.0163 32 77 44.9837 77 61ZM48 88C62.9117 88 75 75.9117 75 61C75 46.0883 62.9117 34 48 34C33.0883 34 21 46.0883 21 61C21 75.9117 33.0883 88 48 88Z" fill="#E89B05"/>
<path fill-rule="evenodd" clip-rule="evenodd" d="M23 62C22.4477 62 22 61.5523 22 61C22 46.6406 33.6406 35 48 35C48.5523 35 49 35.4477 49 36C49 36.5523 48.5523 37 48 37C34.7452 37 24 47.7452 24 61C24 61.5523 23.5523 62 23 62Z" fill="#E8AA0A"/>
<path fill-rule="evenodd" clip-rule="evenodd" d="M73 60C73.5523 60 74 60.4477 74 61C74 75.3594 62.3594 87 48 87C47.4477 87 47 86.5523 47 86C47 85.4477 47.4477 85 48 85C61.2548 85 72 74.2548 72 61C72 60.4477 72.4477 60 73 60Z" fill="#E8AA0A"/>
<path d="M68 61C68 72.0457 59.0457 81 48 81C36.9543 81 28 72.0457 28 61C28 49.9543 36.9543 41 48 41C59.0457 41 68 49.9543 68 61Z" fill="#FFDD28"/>
<path fill-rule="evenodd" clip-rule="evenodd" d="M70 61C70 73.1503 60.1503 83 48 83C35.8497 83 26 73.1503 26 61C26 48.8497 35.8497 39 48 39C60.1503 39 70 48.8497 70 61ZM48 81C59.0457 81 68 72.0457 68 61C68 49.9543 59.0457 41 48 41C36.9543 41 28 49.9543 28 61C28 72.0457 36.9543 81 48 81Z" fill="#E89B05"/>
<path fill-rule="evenodd" clip-rule="evenodd" d="M48 78C57.3888 78 65 70.3888 65 61C65 60.4477 65.4477 60 66 60C66.5523 60 67 60.4477 67 61C67 71.4934 58.4934 80 48 80C47.4477 80 47 79.5523 47 79C47 78.4477 47.4477 78 48 78Z" fill="#ECC704"/>
<path fill-rule="evenodd" clip-rule="evenodd" d="M48 44C38.6112 44 31 51.6112 31 61C31 61.5523 30.5523 62 30 62C29.4477 62 29 61.5523 29 61C29 50.5066 37.5066 42 48 42C48.5523 42 49 42.4477 49 43C49 43.5523 48.5523 44 48 44Z" fill="#FFEF9C"/>
<path d="M50.3867 69H47V55.9453L42.957 57.1992V54.4453L50.0234 51.9141H50.3867V69Z" fill="#FFEF9C"/>
<path fill-rule="evenodd" clip-rule="evenodd" d="M52.3867 69C52.3867 70.1046 51.4913 71 50.3867 71H47C45.8954 71 45 70.1046 45 69V58.6596L43.5495 59.1095C42.9425 59.2977 42.2822 59.1863 41.7706 58.8093C41.259 58.4324 40.957 57.8347 40.957 57.1992V54.4453C40.957 53.6008 41.4875 52.8473 42.2826 52.5625L49.349 50.0312C49.5654 49.9537 49.7936 49.9141 50.0234 49.9141H50.3867C51.4913 49.9141 52.3867 50.8095 52.3867 51.9141V69ZM47 55.9453V69H50.3867V51.9141H50.0234L42.957 54.4453V57.1992L47 55.9453Z" fill="#E89B05"/>
</g>
<defs>
<filter id="filter0_d_482_642" x="0" y="0" width="98" height="98" filterUnits="userSpaceOnUse" color-interpolation-filters="sRGB">
<feFlood flood-opacity="0" result="BackgroundImageFix"/>
<feColorMatrix in="SourceAlpha" type="matrix" values="0 0 0 0 0 0 0 0 0 0 0 0 0 0 0 0 0 0 127 0" result="hardAlpha"/>
<feOffset dx="2" dy="2"/>
<feColorMatrix type="matrix" values="0 0 0 0 0.637788 0 0 0 0 0.545996 0 0 0 0 0.47948 0 0 0 0.2 0"/>
<feBlend mode="normal" in2="BackgroundImageFix" result="effect1_dropShadow_482_642"/>
<feBlend mode="normal" in="SourceGraphic" in2="effect1_dropShadow_482_642" result="shape"/>
</filter>
</defs>
</svg>
