<svg fill="none" height="32" viewBox="0 0 25 32" width="25" xmlns="http://www.w3.org/2000/svg" xmlns:xlink="http://www.w3.org/1999/xlink"><linearGradient id="a" gradientUnits="userSpaceOnUse" x1="11.1804" x2="12.6813" y1="4.03192" y2="31.965"><stop offset="0" stop-color="#ffc600"/><stop offset="1" stop-color="#ffde69"/></linearGradient><linearGradient id="b" gradientUnits="userSpaceOnUse" x1="11.9783" x2="11.9783" y1="5.04096" y2="16.2431"><stop offset="0" stop-color="#fffcdd"/><stop offset="1" stop-color="#ffe896"/></linearGradient><path d="m9.73795 18.8436 3.21315 1.8551-6.52485 11.3013-1.87276-4.1767z" fill="#ce4444"/><path d="m9.73795 18.8436-3.21312-1.8551-6.52483 11.3013 4.55349-.4665z" fill="#983535"/><path d="m14.322 18.8436-3.2132 1.8551 6.5249 11.3013 1.8727-4.1767z" fill="#983535"/><path d="m14.322 18.8436 3.2131-1.8551 6.5248 11.3013-4.5535-.4665z" fill="#ce4444"/><path d="m22.9936 11.0622c0 6.1094-4.9527 11.0621-11.0622 11.0621-6.10946 0-11.062151-4.9527-11.062151-11.0621 0-6.1095 4.952691-11.0622 11.062151-11.0622 6.1095 0 11.0622 4.9527 11.0622 11.0622z" fill="url(#a)"/><path d="m20.5665 11.0621c0 4.769-3.8661 8.6351-8.635 8.6351-4.76903 0-8.63505-3.8661-8.63505-8.6351 0-4.76895 3.86602-8.63497 8.63505-8.63497 4.7689 0 8.635 3.86602 8.635 8.63497z" fill="#a88300"/><path d="m21.0477 11.984c0 4.7801-3.875 8.6551-8.6551 8.6551-4.78009 0-8.65512-3.875-8.65512-8.6551 0-4.78011 3.87503-8.65513 8.65512-8.65513 4.7801 0 8.6551 3.87502 8.6551 8.65513z" fill="#c28b37"/><path d="m20.5868 11.0621c0 4.7801-3.875 8.6551-8.6551 8.6551-4.78011 0-8.65514-3.875-8.65514-8.6551 0-4.78005 3.87503-8.65508 8.65514-8.65508 4.7801 0 8.6551 3.87503 8.6551 8.65508z" fill="#c09525"/><path d="m11.9781 5.04096 1.867 3.73406 3.7341.46676-2.5641 2.87522.6971 4.1261-3.7341-1.867-3.73406 1.867.70325-4.1261-2.57028-2.87522 3.73409-.46676z" fill="url(#b)"/></svg>