<svg width="21" height="21" viewBox="0 0 21 21" fill="none" xmlns="http://www.w3.org/2000/svg">
<rect x="3" y="2" width="16" height="17" rx="8" fill="white"/>
<path d="M10.4895 0C4.6935 0 0 4.704 0 10.5C0 16.296 4.6935 21 10.4895 21C16.296 21 21 16.296 21 10.5C21 4.704 16.296 0 10.4895 0ZM13.881 16.1595L10.5 14.1225L7.119 16.1595C6.72 16.401 6.2265 16.044 6.3315 15.5925L7.224 11.7495L4.2525 9.177C3.906 8.8725 4.095 8.295 4.557 8.253L8.484 7.917L10.017 4.2945C10.1955 3.864 10.8045 3.864 10.983 4.2945L12.516 7.9065L16.443 8.2425C16.905 8.2845 17.094 8.862 16.737 9.1665L13.7655 11.739L14.658 15.5925C14.763 16.044 14.28 16.401 13.881 16.1595Z" fill="#4BAE4F"/>
</svg>
