<svg width="25" height="25" viewBox="0 0 25 25" fill="none" xmlns="http://www.w3.org/2000/svg">
<g clip-path="url(#clip0_20_560)">
<path d="M12.5 25C19.4036 25 25 19.4036 25 12.5C25 5.59644 19.4036 0 12.5 0C5.59644 0 0 5.59644 0 12.5C0 19.4036 5.59644 25 12.5 25Z" fill="#242740"/>
<path d="M11.4844 6C11.37 6.00024 11.2592 6.03969 11.1704 6.11175C11.0816 6.18381 11.0202 6.28414 10.9964 6.396L10.8014 7.324C10.4108 7.43043 10.0322 7.57652 9.67138 7.76L8.87538 7.262C8.77919 7.2019 8.66542 7.17629 8.55276 7.18938C8.4401 7.20246 8.33523 7.25346 8.25538 7.334L6.81938 8.771C6.73898 8.85148 6.68842 8.95697 6.67606 9.07005C6.66369 9.18313 6.69026 9.29705 6.75138 9.393L7.27138 10.209C7.08738 10.549 6.93638 10.909 6.81938 11.287L5.87038 11.512C5.76036 11.5378 5.66232 11.6 5.59222 11.6886C5.52213 11.7773 5.48411 11.887 5.48438 12V14C5.48451 14.1125 5.52259 14.2217 5.59245 14.3099C5.66232 14.3981 5.75988 14.4601 5.86938 14.486L6.81938 14.711C6.93538 15.09 7.08638 15.449 7.26938 15.789L6.75038 16.605C6.68927 16.7003 6.66232 16.8136 6.67395 16.9262C6.68557 17.0388 6.73508 17.1442 6.81438 17.225L8.22138 18.662C8.30168 18.7442 8.40788 18.7963 8.52208 18.8094C8.63628 18.8225 8.75152 18.7959 8.84838 18.734L9.67038 18.211C10.0324 18.403 10.4094 18.555 10.7994 18.668L10.9964 19.602C11.0198 19.7142 11.081 19.815 11.1698 19.8875C11.2587 19.9599 11.3697 19.9997 11.4844 20H13.4844C13.5989 20.0003 13.7101 19.9612 13.7993 19.8893C13.8885 19.8174 13.9503 19.717 13.9744 19.605L14.1704 18.701C14.5728 18.5889 14.9623 18.4347 15.3324 18.241L16.1274 18.736C16.2222 18.7951 16.3341 18.8207 16.4453 18.8087C16.5564 18.7968 16.6603 18.7479 16.7404 18.67L18.1464 17.295C18.2273 17.2162 18.2792 17.1123 18.2935 17.0003C18.3078 16.8882 18.2838 16.7746 18.2254 16.678L17.7274 15.855C17.9174 15.502 18.0694 15.131 18.1844 14.748L19.1194 14.551C19.2316 14.5274 19.3323 14.4659 19.4046 14.3769C19.4768 14.2878 19.5163 14.1767 19.5164 14.062V12C19.5166 11.8854 19.4776 11.7742 19.4056 11.6851C19.3337 11.5959 19.2334 11.5341 19.1214 11.51L18.2194 11.314C18.105 10.9212 17.9506 10.5412 17.7584 10.18L18.2524 9.389C18.3122 9.29322 18.3379 9.18001 18.3252 9.06779C18.3124 8.95558 18.2621 8.85097 18.1824 8.771L16.7444 7.334C16.6647 7.25418 16.5604 7.20363 16.4484 7.19056C16.3364 7.17749 16.2233 7.20267 16.1274 7.262L15.3344 7.758C14.9735 7.56628 14.5938 7.41214 14.2014 7.298L14.0064 6.395C13.9823 6.28299 13.9205 6.18263 13.8313 6.11073C13.7421 6.03883 13.6309 5.99974 13.5164 6H11.4844ZM11.8914 7H13.1134L13.2774 7.762C13.2976 7.8543 13.3435 7.93899 13.4099 8.00624C13.4763 8.0735 13.5604 8.12057 13.6524 8.142C14.1733 8.25963 14.672 8.46019 15.1294 8.736C15.2085 8.78507 15.2998 8.81107 15.3929 8.81107C15.486 8.81107 15.5772 8.78507 15.6564 8.736L16.3184 8.322L17.1934 9.197L16.7794 9.859C16.7298 9.93806 16.7034 10.0294 16.703 10.1227C16.7026 10.216 16.7284 10.3076 16.7774 10.387C17.0494 10.827 17.2474 11.329 17.3734 11.863C17.3948 11.955 17.4419 12.0391 17.5091 12.1055C17.5764 12.1718 17.6611 12.2178 17.7534 12.238L18.5164 12.402V13.656L17.7264 13.822C17.6343 13.8415 17.5497 13.8866 17.4821 13.952C17.4145 14.0175 17.3668 14.1006 17.3444 14.192C17.2243 14.7028 17.0238 15.1912 16.7504 15.639C16.7008 15.7173 16.674 15.8079 16.6729 15.9007C16.6719 15.9934 16.6966 16.0845 16.7444 16.164L17.1644 16.855L16.3224 17.68L15.6564 17.262C15.5772 17.2129 15.486 17.1869 15.3929 17.1869C15.2998 17.1869 15.2085 17.2129 15.1294 17.262C14.663 17.5404 14.1543 17.7407 13.6234 17.855C13.5309 17.8762 13.4463 17.9232 13.3795 17.9907C13.3128 18.0582 13.2666 18.1433 13.2464 18.236L13.0824 19H11.8914L11.7254 18.209C11.706 18.1167 11.6608 18.0317 11.5952 17.9639C11.5295 17.8961 11.4461 17.8483 11.3544 17.826C10.8114 17.695 10.3104 17.506 9.87538 17.232C9.79558 17.1817 9.70319 17.1551 9.60888 17.1551C9.51456 17.1551 9.42218 17.1817 9.34238 17.232L8.65238 17.67L7.80738 16.807L8.25038 16.109C8.30075 16.0302 8.32801 15.9389 8.32907 15.8454C8.33013 15.7518 8.30495 15.6599 8.25638 15.58C7.98453 15.1406 7.78277 14.6615 7.65838 14.16C7.63673 14.0704 7.59072 13.9884 7.52542 13.9233C7.46012 13.8582 7.37808 13.8124 7.28838 13.791L6.48438 13.601V12.394L7.28738 12.204C7.37726 12.1828 7.45951 12.137 7.525 12.0719C7.59049 12.0068 7.63665 11.9248 7.65838 11.835C7.78038 11.331 7.98838 10.855 8.25638 10.415C8.30515 10.335 8.33044 10.2429 8.32938 10.1491C8.32832 10.0554 8.30095 9.9639 8.25038 9.885L7.81038 9.192L8.68238 8.322L9.34638 8.735C9.42573 8.78447 9.51737 8.81069 9.61088 8.81069C9.70439 8.81069 9.79602 8.78447 9.87538 8.735C10.2934 8.475 10.8024 8.305 11.3544 8.171C11.4459 8.14851 11.5291 8.10062 11.5946 8.03286C11.6601 7.9651 11.7051 7.88022 11.7244 7.788L11.8924 7H11.8914ZM12.5164 10C10.8654 10 9.51638 11.35 9.51638 13C9.51638 14.65 10.8654 15.998 12.5164 15.998C14.1664 15.998 15.5164 14.651 15.5164 13C15.5164 11.35 14.1664 10 12.5164 10ZM12.5164 11C13.6264 11 14.5164 11.89 14.5164 13C14.5164 14.11 13.6264 14.998 12.5164 14.998C11.4054 14.998 10.5164 14.11 10.5164 13C10.5164 11.89 11.4054 11 12.5164 11Z" fill="white"/>
</g>
<defs>
<clipPath id="clip0_20_560">
<rect width="25" height="25" fill="white"/>
</clipPath>
</defs>
</svg>
