<svg fill="none" height="32" viewBox="0 0 25 32" width="25" xmlns="http://www.w3.org/2000/svg" xmlns:xlink="http://www.w3.org/1999/xlink"><linearGradient id="a" gradientUnits="userSpaceOnUse" x1="12.0247" x2="12.0247" y1="2.4071" y2="19.7173"><stop offset="0" stop-color="#9ca1a3"/><stop offset="1" stop-color="#9ca1a3" stop-opacity="0"/></linearGradient><linearGradient id="b" gradientUnits="userSpaceOnUse" x1="12.0713" x2="12.0713" y1="5.04102" y2="16.2432"><stop offset="0" stop-color="#f1f5f5"/><stop offset=".0001" stop-color="#fff"/><stop offset="1" stop-color="#f1f5f5"/></linearGradient><mask id="c" height="18" maskUnits="userSpaceOnUse" width="19" x="3" y="3"><circle cx="12.4857" cy="11.984" fill="#c28b37" r="8.65511"/></mask><path d="m9.73779 18.8436 3.21311 1.8551-6.52481 11.3014-1.87276-4.1767z" fill="#418ed6"/><path d="m9.73779 18.8436-3.21312-1.8551-6.52482508 11.3014 4.55348508-.4665z" fill="#2b63a6"/><path d="m14.3218 18.8436-3.2131 1.8551 6.5248 11.3014 1.8727-4.1767z" fill="#2b63a6"/><path d="m14.3218 18.8436 3.2131-1.8551 6.5248 11.3014-4.5535-.4665z" fill="#418ed6"/><circle cx="12.0246" cy="11.0622" fill="#e3e3e3" r="11.0622"/><circle cx="12.0247" cy="11.0621" fill="#595959" r="8.63501"/><g mask="url(#c)"><circle cx="12.0247" cy="11.0622" fill="url(#a)" r="8.65511"/></g><path d="m12.0713 5.04102 1.867 3.73406 3.7341.46675-2.5641 2.87527.6971 4.1261-3.7341-1.867-3.73406 1.867.70325-4.1261-2.57028-2.87527 3.73409-.46675z" fill="url(#b)"/></svg>